<?xml version="1.0" encoding="UTF-8" standalone="no"?>
<!-- Created with Inkscape (http://www.inkscape.org/) -->

<svg
   xmlns:dc="http://purl.org/dc/elements/1.1/"
   xmlns:cc="http://creativecommons.org/ns#"
   xmlns:rdf="http://www.w3.org/1999/02/22-rdf-syntax-ns#"
   xmlns:svg="http://www.w3.org/2000/svg"
   xmlns="http://www.w3.org/2000/svg"
   xmlns:sodipodi="http://sodipodi.sourceforge.net/DTD/sodipodi-0.dtd"
   xmlns:inkscape="http://www.inkscape.org/namespaces/inkscape"
   width="303.6976mm"
   height="136.24942mm"
   viewBox="0 0 1076.0939 482.77357"
   id="svg2"
   version="1.1"
   inkscape:version="0.91 r13725"
   sodipodi:docname="servo.svg"
   inkscape:export-filename="C:\scratch\sinara.wiki\images\servo.png"
   inkscape:export-xdpi="33.45433"
   inkscape:export-ydpi="33.45433">
  <sodipodi:namedview
     id="base"
     pagecolor="#ffffff"
     bordercolor="#666666"
     borderopacity="1.0"
     inkscape:pageopacity="0.0"
     inkscape:pageshadow="2"
     inkscape:zoom="0.7"
     inkscape:cx="335.87955"
     inkscape:cy="210.50561"
     inkscape:document-units="px"
     inkscape:current-layer="layer2"
     showgrid="true"
     inkscape:window-width="1920"
     inkscape:window-height="1148"
     inkscape:window-x="1912"
     inkscape:window-y="-8"
     inkscape:window-maximized="1"
     inkscape:snap-bbox="true"
     inkscape:snap-bbox-midpoints="true"
     inkscape:snap-nodes="true"
     inkscape:object-nodes="true"
     inkscape:snap-global="true"
     fit-margin-top="0"
     fit-margin-left="0"
     fit-margin-right="0"
     fit-margin-bottom="0">
    <inkscape:grid
       id="grid4136"
       type="xygrid"
       originx="251.15001"
       originy="-178.85002" />
  </sodipodi:namedview>
  <defs
     id="defs4">
    <marker
       inkscape:stockid="Arrow1Mend"
       orient="auto"
       refY="0"
       refX="0"
       id="Arrow1Mend"
       style="overflow:visible"
       inkscape:isstock="true">
      <path
         id="path4192"
         d="M 0,0 5,-5 -12.5,0 5,5 0,0 Z"
         style="fill:#000000;fill-opacity:1;fill-rule:evenodd;stroke:#000000;stroke-width:1pt;stroke-opacity:1"
         transform="matrix(-0.4,0,0,-0.4,-4,0)"
         inkscape:connector-curvature="0" />
    </marker>
    <marker
       inkscape:stockid="Arrow2Mstart"
       orient="auto"
       refY="0"
       refX="0"
       id="marker4894"
       style="overflow:visible"
       inkscape:isstock="true">
      <path
         id="path4896"
         style="fill:#000000;fill-opacity:1;fill-rule:evenodd;stroke:#000000;stroke-width:0.625;stroke-linejoin:round;stroke-opacity:1"
         d="M 8.7185878,4.0337352 -2.2072895,0.01601326 8.7185884,-4.0017078 c -1.7454984,2.3720609 -1.7354408,5.6174519 -6e-7,8.035443 z"
         transform="scale(0.6,0.6)"
         inkscape:connector-curvature="0" />
    </marker>
    <marker
       inkscape:stockid="Arrow1Sstart"
       orient="auto"
       refY="0"
       refX="0"
       id="Arrow1Sstart"
       style="overflow:visible"
       inkscape:isstock="true">
      <path
         id="path4195"
         d="M 0,0 5,-5 -12.5,0 5,5 0,0 Z"
         style="fill:#000000;fill-opacity:1;fill-rule:evenodd;stroke:#000000;stroke-width:1pt;stroke-opacity:1"
         transform="matrix(0.2,0,0,0.2,1.2,0)"
         inkscape:connector-curvature="0" />
    </marker>
    <marker
       inkscape:stockid="Arrow2Mstart"
       orient="auto"
       refY="0"
       refX="0"
       id="marker4888"
       style="overflow:visible"
       inkscape:isstock="true">
      <path
         id="path4890"
         style="fill:#000000;fill-opacity:1;fill-rule:evenodd;stroke:#000000;stroke-width:0.625;stroke-linejoin:round;stroke-opacity:1"
         d="M 8.7185878,4.0337352 -2.2072895,0.01601326 8.7185884,-4.0017078 c -1.7454984,2.3720609 -1.7354408,5.6174519 -6e-7,8.035443 z"
         transform="scale(0.6,0.6)"
         inkscape:connector-curvature="0" />
    </marker>
    <marker
       inkscape:stockid="DiamondL"
       orient="auto"
       refY="0"
       refX="0"
       id="DiamondL"
       style="overflow:visible"
       inkscape:isstock="true">
      <path
         id="path4262"
         d="M 0,-7.0710768 -7.0710894,0 0,7.0710589 7.0710462,0 0,-7.0710768 Z"
         style="fill:#000000;fill-opacity:1;fill-rule:evenodd;stroke:#000000;stroke-width:1pt;stroke-opacity:1"
         transform="scale(0.8,0.8)"
         inkscape:connector-curvature="0" />
    </marker>
    <marker
       inkscape:stockid="Arrow2Mend"
       orient="auto"
       refY="0"
       refX="0"
       id="marker4781"
       style="overflow:visible"
       inkscape:isstock="true">
      <path
         id="path4783"
         style="fill:#000000;fill-opacity:1;fill-rule:evenodd;stroke:#000000;stroke-width:0.625;stroke-linejoin:round;stroke-opacity:1"
         d="M 8.7185878,4.0337352 -2.2072895,0.01601326 8.7185884,-4.0017078 c -1.7454984,2.3720609 -1.7354408,5.6174519 -6e-7,8.035443 z"
         transform="scale(-0.6,-0.6)"
         inkscape:connector-curvature="0" />
    </marker>
    <marker
       inkscape:stockid="Arrow2Mstart"
       orient="auto"
       refY="0"
       refX="0"
       id="Arrow2Mstart"
       style="overflow:visible"
       inkscape:isstock="true">
      <path
         id="path4207"
         style="fill:#000000;fill-opacity:1;fill-rule:evenodd;stroke:#000000;stroke-width:0.625;stroke-linejoin:round;stroke-opacity:1"
         d="M 8.7185878,4.0337352 -2.2072895,0.01601326 8.7185884,-4.0017078 c -1.7454984,2.3720609 -1.7354408,5.6174519 -6e-7,8.035443 z"
         transform="scale(0.6,0.6)"
         inkscape:connector-curvature="0" />
    </marker>
    <marker
       inkscape:stockid="Arrow1Lend"
       orient="auto"
       refY="0"
       refX="0"
       id="Arrow1Lend"
       style="overflow:visible"
       inkscape:isstock="true">
      <path
         id="path4186"
         d="M 0,0 5,-5 -12.5,0 5,5 0,0 Z"
         style="fill:#000000;fill-opacity:1;fill-rule:evenodd;stroke:#000000;stroke-width:1pt;stroke-opacity:1"
         transform="matrix(-0.8,0,0,-0.8,-10,0)"
         inkscape:connector-curvature="0" />
    </marker>
    <marker
       inkscape:stockid="Arrow2Mend"
       orient="auto"
       refY="0"
       refX="0"
       id="marker4773"
       style="overflow:visible"
       inkscape:isstock="true">
      <path
         id="path4775"
         style="fill:#000000;fill-opacity:1;fill-rule:evenodd;stroke:#000000;stroke-width:0.625;stroke-linejoin:round;stroke-opacity:1"
         d="M 8.7185878,4.0337352 -2.2072895,0.01601326 8.7185884,-4.0017078 c -1.7454984,2.3720609 -1.7354408,5.6174519 -6e-7,8.035443 z"
         transform="scale(-0.6,-0.6)"
         inkscape:connector-curvature="0" />
    </marker>
    <marker
       inkscape:stockid="Arrow2Mend"
       orient="auto"
       refY="0"
       refX="0"
       id="Arrow2Mend"
       style="overflow:visible"
       inkscape:isstock="true">
      <path
         id="path4210"
         style="fill:#000000;fill-opacity:1;fill-rule:evenodd;stroke:#000000;stroke-width:0.625;stroke-linejoin:round;stroke-opacity:1"
         d="M 8.7185878,4.0337352 -2.2072895,0.01601326 8.7185884,-4.0017078 c -1.7454984,2.3720609 -1.7354408,5.6174519 -6e-7,8.035443 z"
         transform="scale(-0.6,-0.6)"
         inkscape:connector-curvature="0" />
    </marker>
    <marker
       inkscape:stockid="Arrow2Mend"
       orient="auto"
       refY="0"
       refX="0"
       id="Arrow2Mend-4"
       style="overflow:visible"
       inkscape:isstock="true">
      <path
         inkscape:connector-curvature="0"
         id="path4210-5"
         style="fill:#000000;fill-opacity:1;fill-rule:evenodd;stroke:#000000;stroke-width:0.625;stroke-linejoin:round;stroke-opacity:1"
         d="M 8.7185878,4.0337352 -2.2072895,0.01601326 8.7185884,-4.0017078 c -1.7454984,2.3720609 -1.7354408,5.6174519 -6e-7,8.035443 z"
         transform="scale(-0.6,-0.6)" />
    </marker>
    <marker
       inkscape:stockid="Arrow2Mstart"
       orient="auto"
       refY="0"
       refX="0"
       id="marker4894-2"
       style="overflow:visible"
       inkscape:isstock="true">
      <path
         inkscape:connector-curvature="0"
         id="path4896-2"
         style="fill:#000000;fill-opacity:1;fill-rule:evenodd;stroke:#000000;stroke-width:0.625;stroke-linejoin:round;stroke-opacity:1"
         d="M 8.7185878,4.0337352 -2.2072895,0.01601326 8.7185884,-4.0017078 c -1.7454984,2.3720609 -1.7354408,5.6174519 -6e-7,8.035443 z"
         transform="scale(0.6,0.6)" />
    </marker>
    <marker
       inkscape:stockid="Arrow2Mstart"
       orient="auto"
       refY="0"
       refX="0"
       id="marker4894-1"
       style="overflow:visible"
       inkscape:isstock="true">
      <path
         inkscape:connector-curvature="0"
         id="path4896-0"
         style="fill:#000000;fill-opacity:1;fill-rule:evenodd;stroke:#000000;stroke-width:0.625;stroke-linejoin:round;stroke-opacity:1"
         d="M 8.7185878,4.0337352 -2.2072895,0.01601326 8.7185884,-4.0017078 c -1.7454984,2.3720609 -1.7354408,5.6174519 -6e-7,8.035443 z"
         transform="scale(0.6,0.6)" />
    </marker>
  </defs>
  <metadata
     id="metadata7">
    <rdf:RDF>
      <cc:Work
         rdf:about="">
        <dc:format>image/svg+xml</dc:format>
        <dc:type
           rdf:resource="http://purl.org/dc/dcmitype/StillImage" />
        <dc:title />
      </cc:Work>
    </rdf:RDF>
  </metadata>
  <g
     id="layer1"
     inkscape:groupmode="layer"
     inkscape:label="Layer 1"
     transform="translate(251.15,-390.73865)" />
  <g
     inkscape:label="Layer 2"
     id="layer2"
     inkscape:groupmode="layer"
     transform="translate(251.15,-390.73865)">
    <text
       xml:space="preserve"
       style="font-style:normal;font-weight:normal;font-size:20px;line-height:128.99999619%;font-family:Sans;letter-spacing:0px;word-spacing:0px;fill:#000000;fill-opacity:1;stroke:none;stroke-width:1px;stroke-linecap:butt;stroke-linejoin:miter;stroke-opacity:1"
       x="545.85449"
       y="572.04071"
       id="text4470"
       sodipodi:linespacing="129%"><tspan
         sodipodi:role="line"
         id="tspan4472"
         x="545.85449"
         y="572.04071">power amp,</tspan><tspan
         id="tspan4707"
         sodipodi:role="line"
         x="545.85449"
         y="597.8407">AOM,</tspan><tspan
         id="tspan4709"
         sodipodi:role="line"
         x="545.85449"
         y="623.64069">etc</tspan></text>
    <path
       style="fill:none;fill-rule:evenodd;stroke:#000000;stroke-width:3;stroke-linecap:butt;stroke-linejoin:miter;stroke-miterlimit:4;stroke-dasharray:none;stroke-opacity:1"
       d="M 329.44543,752.3622 400,752.36218"
       id="path4173-6-8"
       inkscape:connector-curvature="0"
       sodipodi:nodetypes="cc" />
    <path
       style="fill:none;fill-rule:evenodd;stroke:#000000;stroke-width:3;stroke-linecap:butt;stroke-linejoin:miter;stroke-miterlimit:4;stroke-dasharray:none;stroke-opacity:1"
       d="m 220,752.36218 105,0"
       id="path4173-6-8-8"
       inkscape:connector-curvature="0"
       sodipodi:nodetypes="cc" />
    <text
       xml:space="preserve"
       style="font-style:normal;font-weight:normal;font-size:20px;line-height:128.99999619%;font-family:Sans;letter-spacing:0px;word-spacing:0px;fill:#000000;fill-opacity:1;stroke:none;stroke-width:1px;stroke-linecap:butt;stroke-linejoin:miter;stroke-opacity:1"
       x="168.73047"
       y="759.63269"
       id="text4470-1"
       sodipodi:linespacing="129%"><tspan
         sodipodi:role="line"
         id="tspan4472-5"
         x="168.73047"
         y="759.63269">ADC</tspan></text>
    <g
       id="g5002"
       transform="translate(-160,-130)">
      <circle
         style="opacity:1;fill:none;fill-opacity:1;stroke:#000000;stroke-width:3.5999999;stroke-linecap:square;stroke-miterlimit:4;stroke-dasharray:none;stroke-dashoffset:0;stroke-opacity:1"
         id="path4138-5-3"
         cx="60"
         cy="882.36218"
         r="30" />
      <path
         inkscape:connector-curvature="0"
         id="path4648"
         d="m 73.136396,872.36218 0,-5 -25,0 15,15 -15,15 25,0 0,-5"
         style="fill:none;fill-rule:evenodd;stroke:#000000;stroke-width:1.79999995;stroke-linecap:butt;stroke-linejoin:miter;stroke-miterlimit:4;stroke-dasharray:none;stroke-opacity:1" />
    </g>
    <path
       style="fill:none;fill-rule:evenodd;stroke:#000000;stroke-width:3;stroke-linecap:butt;stroke-linejoin:miter;stroke-miterlimit:4;stroke-dasharray:none;stroke-opacity:1"
       d="m -100,722.36218 0,-90"
       id="path4173-0"
       inkscape:connector-curvature="0"
       sodipodi:nodetypes="cc" />
    <text
       xml:space="preserve"
       style="font-style:normal;font-weight:normal;font-size:30px;line-height:128.99999619%;font-family:Sans;letter-spacing:0px;word-spacing:0px;fill:#000000;fill-opacity:1;stroke:none;stroke-width:1px;stroke-linecap:butt;stroke-linejoin:miter;stroke-opacity:1"
       x="752.31689"
       y="603.53162"
       id="text4726"
       sodipodi:linespacing="129%"><tspan
         sodipodi:role="line"
         id="tspan4728"
         x="752.31689"
         y="603.53162">laser</tspan></text>
    <text
       xml:space="preserve"
       style="font-style:normal;font-weight:normal;font-size:30px;line-height:128.99999619%;font-family:Sans;letter-spacing:0px;word-spacing:0px;fill:#000000;fill-opacity:1;stroke:none;stroke-width:1px;stroke-linecap:butt;stroke-linejoin:miter;stroke-opacity:1"
       x="20"
       y="872.36218"
       id="text4751"
       sodipodi:linespacing="129%"><tspan
         sodipodi:role="line"
         id="tspan4753"
         x="20"
         y="872.36218" /></text>
    <path
       style="fill:none;fill-rule:evenodd;stroke:#000000;stroke-width:3;stroke-linecap:butt;stroke-linejoin:miter;stroke-miterlimit:4;stroke-dasharray:none;stroke-opacity:1"
       d="m 750,592.36218 -70.55457,2e-5"
       id="path4173-6-3"
       inkscape:connector-curvature="0"
       sodipodi:nodetypes="cc" />
    <path
       style="fill:none;fill-rule:evenodd;stroke:#000000;stroke-width:3;stroke-linecap:butt;stroke-linejoin:miter;stroke-miterlimit:4;stroke-dasharray:none;stroke-opacity:1"
       d="m 130,502.36218 -230,0 0,70"
       id="path4173-6-1"
       inkscape:connector-curvature="0"
       sodipodi:nodetypes="ccc" />
    <text
       xml:space="preserve"
       style="font-style:normal;font-weight:normal;font-size:20px;line-height:128.99999619%;font-family:Sans;letter-spacing:0px;word-spacing:0px;fill:#000000;fill-opacity:1;stroke:none;stroke-width:1px;stroke-linecap:butt;stroke-linejoin:miter;stroke-opacity:1"
       x="-238.67676"
       y="607.99695"
       id="text4470-1-5-2"
       sodipodi:linespacing="129%"><tspan
         sodipodi:role="line"
         id="tspan4472-5-7-3"
         x="-238.67676"
         y="607.99695">loop filter</tspan></text>
    <g
       id="g4323"
       transform="translate(-120,4.3164266e-7)">
      <rect
         y="572.36218"
         x="-10"
         height="60"
         width="60"
         id="rect4468-3"
         style="opacity:1;fill:none;fill-opacity:1;stroke:#000000;stroke-width:2.70000005;stroke-linecap:square;stroke-miterlimit:4;stroke-dasharray:none;stroke-dashoffset:0;stroke-opacity:1" />
      <path
         sodipodi:nodetypes="ccc"
         inkscape:connector-curvature="0"
         id="path4882"
         d="m 0,587.36218 15,25 25,0"
         style="fill:none;fill-rule:evenodd;stroke:#000000;stroke-width:2.29999995;stroke-linecap:butt;stroke-linejoin:miter;stroke-miterlimit:4;stroke-dasharray:none;stroke-opacity:1" />
    </g>
    <g
       id="g4414">
      <rect
         y="552.36218"
         x="530"
         height="80.000023"
         width="150.00002"
         id="rect4468"
         style="opacity:1;fill:none;fill-opacity:1;stroke:#000000;stroke-width:2.70000005;stroke-linecap:square;stroke-miterlimit:4;stroke-dasharray:none;stroke-dashoffset:0;stroke-opacity:1" />
      <path
         sodipodi:nodetypes="cc"
         inkscape:connector-curvature="0"
         id="path4173-6-5"
         d="m 610,662.36218 0,-30"
         style="fill:none;fill-rule:evenodd;stroke:#000000;stroke-width:3;stroke-linecap:butt;stroke-linejoin:miter;stroke-miterlimit:4;stroke-dasharray:none;stroke-opacity:1" />
      <g
         transform="translate(145.00001,-183.70459)"
         id="g4957">
        <g
           transform="translate(4.9999903,5.8789283e-7)"
           id="g4368">
          <circle
             style="opacity:1;fill:none;fill-opacity:1;stroke:#000000;stroke-width:3.5999999;stroke-linecap:square;stroke-miterlimit:4;stroke-dasharray:none;stroke-dashoffset:0;stroke-opacity:1"
             id="path4138-5"
             cx="460"
             cy="876.06677"
             r="30" />
          <path
             inkscape:connector-curvature="0"
             id="path4547"
             d="m 450,882.36218 10,-15 10,15 -20,0"
             style="fill:#000000;fill-rule:evenodd;stroke:#000000;stroke-width:1px;stroke-linecap:butt;stroke-linejoin:miter;stroke-opacity:1" />
          <path
             sodipodi:nodetypes="cc"
             inkscape:connector-curvature="0"
             id="path4549"
             d="m 460,892.36218 0,-35"
             style="fill:none;fill-rule:evenodd;stroke:#000000;stroke-width:1.60000002;stroke-linecap:butt;stroke-linejoin:miter;stroke-miterlimit:4;stroke-dasharray:none;stroke-opacity:1" />
          <path
             sodipodi:nodetypes="cc"
             inkscape:connector-curvature="0"
             id="path4884"
             d="m 467.67857,871.29076 8.39286,-10.35714"
             style="fill:none;fill-rule:evenodd;stroke:#000000;stroke-width:1px;stroke-linecap:butt;stroke-linejoin:miter;stroke-opacity:1;marker-start:url(#marker4894)" />
          <path
             sodipodi:nodetypes="cc"
             inkscape:connector-curvature="0"
             id="path4884-2"
             d="m 472.72339,875.83693 8.39286,-10.35714"
             style="fill:none;fill-rule:evenodd;stroke:#000000;stroke-width:1px;stroke-linecap:butt;stroke-linejoin:miter;stroke-opacity:1;marker-start:url(#marker4894-1)" />
          <path
             inkscape:connector-curvature="0"
             id="path4940"
             d="m 454.56864,867.25173 10.48034,0.25254"
             style="fill:none;fill-rule:evenodd;stroke:#000000;stroke-width:1.29999995;stroke-linecap:butt;stroke-linejoin:miter;stroke-miterlimit:4;stroke-dasharray:none;stroke-opacity:1" />
        </g>
      </g>
    </g>
    <g
       id="g5104"
       transform="translate(30.000002,0.82093416)">
      <g
         transform="translate(-30,-125)"
         id="g4965">
        <path
           style="fill:#000000;fill-rule:evenodd;stroke:#000000;stroke-width:1px;stroke-linecap:butt;stroke-linejoin:miter;stroke-opacity:1"
           d="m 360,852.36218 0,50 -40,-25 z"
           id="path4566"
           inkscape:connector-curvature="0" />
      </g>
      <g
         id="g5099">
        <path
           transform="translate(-30,-125)"
           inkscape:connector-curvature="0"
           id="path4177-3"
           d="m 376.32317,898.09469 -70,-50"
           style="fill:none;fill-rule:evenodd;stroke:#000000;stroke-width:2.70000005;stroke-linecap:butt;stroke-linejoin:miter;stroke-miterlimit:4;stroke-dasharray:none;stroke-opacity:1;marker-end:url(#Arrow2Mend-4)" />
        <text
           xml:space="preserve"
           style="font-style:normal;font-weight:normal;font-size:20px;line-height:125%;font-family:Sans;letter-spacing:0px;word-spacing:0px;fill:#000000;fill-opacity:1;stroke:none;stroke-width:1px;stroke-linecap:butt;stroke-linejoin:miter;stroke-opacity:1"
           x="284.30664"
           y="709.62292"
           id="text4460-6"
           sodipodi:linespacing="125%"><tspan
             sodipodi:role="line"
             id="tspan4462-5"
             x="284.30664"
             y="709.62292">PGIA</tspan></text>
      </g>
    </g>
    <rect
       style="opacity:1;fill:none;fill-opacity:1;stroke:#000000;stroke-width:2.70000005;stroke-linecap:square;stroke-miterlimit:4;stroke-dasharray:none;stroke-dashoffset:0;stroke-opacity:1"
       id="rect4468-3-3"
       width="60"
       height="60"
       x="160"
       y="722.36218" />
    <path
       style="fill:none;fill-rule:evenodd;stroke:#000000;stroke-width:3;stroke-linecap:butt;stroke-linejoin:miter;stroke-miterlimit:4;stroke-dasharray:none;stroke-opacity:1"
       d="m -70,752.36218 230.27728,1e-5"
       id="path4173-6-8-8-6"
       inkscape:connector-curvature="0"
       sodipodi:nodetypes="cc" />
    <text
       xml:space="preserve"
       style="font-style:normal;font-weight:normal;font-size:20px;line-height:128.99999619%;font-family:Sans;letter-spacing:0px;word-spacing:0px;fill:#000000;fill-opacity:1;stroke:none;stroke-width:1px;stroke-linecap:butt;stroke-linejoin:miter;stroke-opacity:1"
       x="100.00977"
       y="717.4505"
       id="text4456-5-5"
       sodipodi:linespacing="129%"
       inkscape:transform-center-y="20.000022"
       inkscape:transform-center-x="-2.8571428"><tspan
         sodipodi:role="line"
         id="tspan4458-1-0"
         x="100.00977"
         y="717.4505"
         style="line-height:128.99999619%;text-align:center;text-anchor:middle" /><tspan
         sodipodi:role="line"
         x="100.00977"
         y="743.25049"
         id="tspan4785-6"
         style="line-height:128.99999619%;text-align:center;text-anchor:middle">[0, 1]</tspan></text>
    <text
       xml:space="preserve"
       style="font-style:normal;font-weight:normal;font-size:20px;line-height:128.99999619%;font-family:Sans;letter-spacing:0px;word-spacing:0px;fill:#000000;fill-opacity:1;stroke:none;stroke-width:1px;stroke-linecap:butt;stroke-linejoin:miter;stroke-opacity:1"
       x="260.00977"
       y="778.04578"
       id="text4456-5-5-7"
       sodipodi:linespacing="129%"
       inkscape:transform-center-y="20.000022"
       inkscape:transform-center-x="-2.8571428"><tspan
         sodipodi:role="line"
         x="260.00977"
         y="778.04578"
         id="tspan4785-6-6"
         style="line-height:128.99999619%;text-align:center;text-anchor:middle" /></text>
    <text
       xml:space="preserve"
       style="font-style:normal;font-weight:normal;font-size:20px;line-height:128.99999619%;font-family:Sans;letter-spacing:0px;word-spacing:0px;fill:#000000;fill-opacity:1;stroke:none;stroke-width:1px;stroke-linecap:butt;stroke-linejoin:miter;stroke-opacity:1"
       x="-144.25293"
       y="857.6698"
       id="text4470-1-5-2-0"
       sodipodi:linespacing="129%"><tspan
         sodipodi:role="line"
         id="tspan4472-5-7-3-1"
         x="-144.25293"
         y="857.6698">set point</tspan></text>
    <path
       style="fill:none;fill-rule:evenodd;stroke:#000000;stroke-width:3;stroke-linecap:butt;stroke-linejoin:miter;stroke-miterlimit:4;stroke-dasharray:none;stroke-opacity:1"
       d="m -100,837.36218 0,-55"
       id="path4173-0-0"
       inkscape:connector-curvature="0"
       sodipodi:nodetypes="cc" />
    <text
       xml:space="preserve"
       style="font-style:normal;font-weight:normal;font-size:20px;line-height:128.99999619%;font-family:Sans;letter-spacing:0px;word-spacing:0px;fill:#000000;fill-opacity:1;stroke:none;stroke-width:1px;stroke-linecap:butt;stroke-linejoin:miter;stroke-opacity:1"
       x="269.12598"
       y="796.84583"
       id="text4456-5-5-2"
       sodipodi:linespacing="129%"
       inkscape:transform-center-y="20.000022"
       inkscape:transform-center-x="-2.8571428"><tspan
         sodipodi:role="line"
         id="tspan4458-1-0-5"
         x="269.12598"
         y="796.84583"
         style="line-height:128.99999619%;text-align:center;text-anchor:middle" /><tspan
         sodipodi:role="line"
         x="269.12598"
         y="822.64581"
         id="tspan4785-6-1"
         style="line-height:128.99999619%;text-align:center;text-anchor:middle">[0, +1V] min</tspan><tspan
         sodipodi:role="line"
         x="269.12598"
         y="848.4458"
         style="line-height:128.99999619%;text-align:center;text-anchor:middle"
         id="tspan5133">[-10V, 10V] max</tspan></text>
    <path
       style="fill:none;fill-rule:evenodd;stroke:#000000;stroke-width:2.29999995;stroke-linecap:butt;stroke-linejoin:miter;stroke-miterlimit:4;stroke-dasharray:none;stroke-opacity:1;marker-end:url(#Arrow1Mend)"
       d="m 270,794.55872 0,-30"
       id="path5135"
       inkscape:connector-curvature="0" />
    <g
       id="g4169"
       transform="translate(15.101532,85.005088)">
      <path
         inkscape:connector-curvature="0"
         style="opacity:1;fill:none;fill-opacity:1;stroke:#000000;stroke-width:2.72399998;stroke-linecap:square;stroke-miterlimit:4;stroke-dasharray:none;stroke-dashoffset:0;stroke-opacity:1"
         d="m 121.96458,417.35731 c 0.0769,-0.13053 0.15366,-0.26108 0.23049,-0.39156 0.0769,-0.13047 0.15366,-0.26089 0.2305,-0.39117 0.0769,-0.13029 0.15366,-0.26044 0.23049,-0.3904 0.0769,-0.12995 0.15367,-0.25972 0.23049,-0.38922 0.0769,-0.12951 0.15366,-0.25875 0.23048,-0.38767 0.0769,-0.12892 0.15367,-0.25752 0.2305,-0.38573 0.0769,-0.12821 0.15366,-0.25602 0.23049,-0.38339 0.0769,-0.12737 0.15367,-0.25428 0.2305,-0.38069 0.0769,-0.1264 0.15366,-0.25229 0.23049,-0.37759 0.0769,-0.12531 0.15366,-0.25004 0.2305,-0.37413 0.0769,-0.1241 0.15365,-0.24754 0.23049,-0.37029 0.0769,-0.12275 0.15365,-0.2448 0.23048,-0.36608 0.0769,-0.12129 0.15366,-0.24181 0.23049,-0.36151 0.0769,-0.1197 0.15366,-0.23858 0.23049,-0.35657 0.0769,-0.118 0.15366,-0.23512 0.2305,-0.3513 0.0769,-0.11617 0.15366,-0.2314 0.23049,-0.34563 0.0769,-0.11425 0.15366,-0.22748 0.23049,-0.33967 0.0769,-0.11219 0.15366,-0.22331 0.23048,-0.33334 0.0769,-0.11002 0.15367,-0.21893 0.2305,-0.32668 0.0769,-0.10775 0.15366,-0.21434 0.23049,-0.31971 0.0769,-0.10537 0.15367,-0.20952 0.23049,-0.3124 0.0769,-0.10289 0.15367,-0.20449 0.23049,-0.3048 0.0769,-0.1003 0.15367,-0.19927 0.23051,-0.29688 0.0769,-0.0976 0.15365,-0.19384 0.23049,-0.28867 0.0769,-0.0948 0.15366,-0.18823 0.23048,-0.28017 0.0769,-0.0919 0.15366,-0.18242 0.23049,-0.2714 0.0769,-0.089 0.15366,-0.17643 0.2305,-0.26234 0.0769,-0.0859 0.15365,-0.17027 0.23049,-0.25304 0.0769,-0.0828 0.15366,-0.16394 0.23049,-0.24348 0.0769,-0.0795 0.15366,-0.15744 0.23049,-0.23367 0.0769,-0.0762 0.15366,-0.15078 0.23049,-0.22363 0.0769,-0.0729 0.15365,-0.14398 0.23049,-0.21338 0.0769,-0.0694 0.15366,-0.13703 0.23049,-0.2029 0.0769,-0.0659 0.15367,-0.12995 0.23049,-0.19223 0.0769,-0.0623 0.15367,-0.12273 0.23049,-0.18136 0.0769,-0.0586 0.15367,-0.1154 0.2305,-0.17031 0.0769,-0.0549 0.15366,-0.10795 0.23049,-0.1591 0.0769,-0.0512 0.15367,-0.10038 0.23049,-0.14772 0.0769,-0.0473 0.15366,-0.0927 0.23049,-0.1362 0.0769,-0.0434 0.15366,-0.085 0.2305,-0.12453 0.0769,-0.0395 0.15365,-0.0771 0.23049,-0.11275 0.0769,-0.0356 0.15366,-0.0692 0.23049,-0.10087 0.0769,-0.0317 0.15366,-0.0613 0.23049,-0.0888 0.0769,-0.0276 0.15366,-0.0532 0.2305,-0.0768 0.0769,-0.0236 0.15365,-0.0451 0.23049,-0.0646 0.0769,-0.0195 0.15365,-0.037 0.23048,-0.0524 0.0769,-0.0154 0.15366,-0.0288 0.23049,-0.0401 0.0769,-0.0113 0.15366,-0.0206 0.23049,-0.0277 0.0769,-0.007 0.15367,-0.0123 0.2305,-0.0154 0.0769,-0.003 0.15367,-0.004 0.23049,-0.003 0.0769,7.5e-4 0.15367,0.004 0.23049,0.009 0.0769,0.005 0.15367,0.0124 0.23048,0.0216 0.0769,0.009 0.15367,0.0206 0.2305,0.034 0.0769,0.0134 0.15366,0.0288 0.2305,0.0462 0.0769,0.0175 0.15366,0.037 0.23049,0.0585 0.0769,0.0216 0.15366,0.0451 0.23049,0.0707 0.0769,0.0256 0.15366,0.0532 0.2305,0.0828 0.0769,0.0296 0.15365,0.0613 0.23049,0.0949 0.0769,0.0336 0.15366,0.0692 0.23048,0.10681 0.0769,0.0376 0.15366,0.0772 0.23049,0.11867 0.0769,0.0415 0.15366,0.085 0.2305,0.13038 0.0769,0.0454 0.15365,0.0927 0.23049,0.14197 0.0769,0.0493 0.15366,0.1004 0.23049,0.15343 0.0769,0.053 0.15366,0.10795 0.23049,0.16473 0.0769,0.0568 0.15367,0.1154 0.2305,0.17585 0.0769,0.0605 0.15365,0.12274 0.23048,0.18682 0.0769,0.0641 0.15367,0.12995 0.23049,0.1976 0.0769,0.0677 0.15367,0.13703 0.23049,0.20815 0.0769,0.0712 0.15367,0.14399 0.2305,0.21854 0.0769,0.0745 0.15366,0.15078 0.2305,0.22868 0.0769,0.0779 0.15366,0.15745 0.23049,0.2386 0.0769,0.0812 0.15366,0.16394 0.23049,0.24829 0.0769,0.0844 0.15365,0.17028 0.23048,0.25772 0.0769,0.0875 0.15366,0.17644 0.2305,0.26691 0.0769,0.0905 0.15365,0.18243 0.23049,0.27582 0.0769,0.0934 0.15366,0.18823 0.23049,0.28446 0.0769,0.0962 0.15366,0.19384 0.23049,0.2928 0.0769,0.099 0.15366,0.19928 0.2305,0.30089 0.0769,0.10159 0.15365,0.2045 0.23049,0.30863 0.0769,0.10414 0.15366,0.20952 0.23048,0.31609 0.0769,0.10657 0.15367,0.21434 0.23049,0.32324 0.0769,0.1089 0.15367,0.21894 0.2305,0.33005 0.0769,0.11111 0.15366,0.22332 0.23049,0.33654 0.0769,0.11323 0.15367,0.22748 0.23049,0.3427 0.0769,0.11522 0.15367,0.23141 0.2305,0.34851 0.0769,0.1171 0.15366,0.23511 0.23048,0.35397 0.0769,0.11887 0.15366,0.23859 0.2305,0.35909 0.0769,0.12051 0.15366,0.24181 0.23049,0.36384 0.0769,0.12203 0.15366,0.2448 0.23049,0.36823 0.0769,0.12344 0.15366,0.24754 0.23049,0.37226 0.0769,0.12471 0.15366,0.25004 0.2305,0.3759 0.0769,0.12588 0.15365,0.2523 0.23049,0.37919 0.0769,0.12691 0.15365,0.25429 0.23048,0.38209 0.0769,0.12781 0.15366,0.25603 0.23049,0.38461 0.0769,0.12858 0.15367,0.25752 0.2305,0.38674 0.0769,0.12923 0.15366,0.25875 0.23049,0.3885 0.0769,0.12975 0.15367,0.25972 0.23049,0.38986 0.0769,0.13014 0.15367,0.26043 0.23049,0.39084 0.0769,0.13039 0.15367,0.26088 0.2305,0.39141 0.0769,0.13053 0.15365,0.26109 0.23049,0.39162 0.0769,0.13053 0.15366,0.26102 0.23049,0.39141 0.0769,0.1304 0.15366,0.2607 0.23049,0.39084 0.0769,0.13014 0.15366,0.26011 0.23049,0.38986 0.0769,0.12974 0.15366,0.25927 0.2305,0.3885 0.0769,0.12922 0.15366,0.25816 0.23049,0.38673 0.0769,0.12859 0.15366,0.25681 0.23049,0.38461 0.0768,0.12781 0.15365,0.25519 0.23048,0.38209 0.0769,0.1269 0.15366,0.25332 0.2305,0.37919 0.0769,0.12587 0.15365,0.2512 0.23049,0.37591 0.0769,0.12471 0.15366,0.24882 0.23049,0.37225 0.0769,0.12344 0.15367,0.24621 0.23049,0.36824 0.0769,0.12203 0.15367,0.24333 0.2305,0.36384 0.0769,0.12051 0.15366,0.24021 0.23048,0.35908 0.0769,0.11887 0.15367,0.23687 0.23049,0.35398 0.0769,0.1171 0.15367,0.23328 0.2305,0.34851 0.0769,0.11522 0.15366,0.22947 0.2305,0.3427 0.0769,0.11322 0.15365,0.22541 0.23049,0.33654 0.0769,0.11112 0.15366,0.22115 0.23049,0.33005 0.0769,0.1089 0.15366,0.21666 0.23049,0.32323 0.0769,0.10657 0.15366,0.21196 0.23048,0.3161 0.0769,0.10414 0.15366,0.20703 0.2305,0.30863 0.0769,0.10161 0.15366,0.20191 0.23049,0.30088 0.0769,0.099 0.15366,0.19658 0.23049,0.29281 0.0769,0.0962 0.15366,0.19107 0.23049,0.28446 0.0769,0.0934 0.15366,0.18535 0.2305,0.27582 0.0769,0.0905 0.15367,0.17945 0.23049,0.2669 0.0769,0.0875 0.15366,0.17338 0.23048,0.25773 0.0769,0.0844 0.15367,0.16712 0.23049,0.24828 0.0769,0.0812 0.15367,0.16072 0.2305,0.23861 0.0769,0.0779 0.15366,0.15413 0.23049,0.22868 0.0769,0.0745 0.15367,0.1474 0.2305,0.21854 0.0769,0.0711 0.15366,0.14052 0.23049,0.20816 0.0769,0.0677 0.15366,0.13351 0.2305,0.19759 0.0769,0.0641 0.15364,0.12636 0.23048,0.18682 0.0769,0.0605 0.15366,0.11908 0.23049,0.17585 0.0769,0.0568 0.15366,0.11169 0.23049,0.16473 0.0769,0.053 0.15366,0.10418 0.2305,0.15342 0.0769,0.0492 0.15365,0.0966 0.23049,0.14198 0.0769,0.0454 0.15366,0.0889 0.23049,0.13038 0.0769,0.0415 0.15366,0.0811 0.23049,0.11866 0.0769,0.0376 0.15366,0.0732 0.23048,0.10683 0.0769,0.0336 0.15367,0.0652 0.2305,0.0949 0.0769,0.0296 0.15367,0.0572 0.23049,0.0828 0.0769,0.0256 0.15367,0.0492 0.23049,0.0707 0.0769,0.0215 0.15367,0.0411 0.23049,0.0585 0.0769,0.0175 0.15367,0.0329 0.23051,0.0462 0.0769,0.0134 0.15365,0.0247 0.23048,0.034 0.0769,0.009 0.15366,0.0165 0.23049,0.0216 0.0769,0.005 0.15366,0.008 0.23049,0.009 0.0769,7.4e-4 0.15366,0 0.2305,-0.003 0.0769,-0.003 0.15365,-0.008 0.23049,-0.0154 0.0769,-0.007 0.15366,-0.0165 0.23049,-0.0277 0.0769,-0.0113 0.15366,-0.0247 0.23049,-0.0401 0.0769,-0.0154 0.15365,-0.0329 0.23049,-0.0524 0.0769,-0.0195 0.15365,-0.041 0.23049,-0.0646 0.0769,-0.0236 0.15367,-0.0492 0.23049,-0.0768 0.0769,-0.0276 0.15367,-0.0572 0.23049,-0.0889 0.0769,-0.0317 0.15367,-0.0653 0.23049,-0.10086 0.0769,-0.0356 0.15367,-0.0732 0.2305,-0.11276 0.0769,-0.0396 0.15367,-0.0811 0.23049,-0.12454 0.0769,-0.0434 0.15366,-0.0889 0.23049,-0.13619 0.0769,-0.0473 0.15366,-0.0966 0.23049,-0.14772 0.0769,-0.0512 0.15366,-0.10419 0.2305,-0.1591 0.0769,-0.0549 0.15365,-0.11169 0.23049,-0.17031 0.0769,-0.0586 0.15366,-0.11909 0.23049,-0.18136 0.0769,-0.0623 0.15366,-0.12636 0.23049,-0.19222 0.0769,-0.0659 0.15366,-0.13352 0.2305,-0.20291 0.0769,-0.0694 0.15364,-0.14053 0.23048,-0.21337 0.0769,-0.0729 0.15366,-0.14741 0.23049,-0.22364 0.0769,-0.0762 0.15366,-0.15413 0.23049,-0.23368 0.0769,-0.0795 0.15366,-0.16071 0.2305,-0.24347 0.0769,-0.0828 0.15366,-0.16713 0.23049,-0.25304 0.0769,-0.0859 0.15367,-0.17337 0.23049,-0.26235 0.0769,-0.089 0.15367,-0.17945 0.23048,-0.27139 0.0769,-0.0919 0.15367,-0.18535 0.23049,-0.28017 0.0769,-0.0948 0.15367,-0.19107 0.2305,-0.28867 0.0769,-0.0976 0.15367,-0.19659 0.2305,-0.29688 0.0769,-0.10029 0.15366,-0.20192 0.23049,-0.30479 0.0769,-0.10289 0.15366,-0.20704 0.23049,-0.31241 0.0769,-0.10537 0.15366,-0.21196 0.2305,-0.31971 0.0769,-0.10774 0.15365,-0.21666 0.23048,-0.32668 0.0769,-0.11002 0.15366,-0.22116 0.23049,-0.33334 0.0769,-0.11218 0.15366,-0.22543 0.23049,-0.33966 0.0769,-0.11424 0.15366,-0.22948 0.2305,-0.34565 0.0769,-0.11617 0.15365,-0.23329 0.23049,-0.35128 0.0769,-0.118 0.15366,-0.23688 0.23049,-0.35658 0.0769,-0.1197 0.15367,-0.24022 0.23049,-0.3615 0.0769,-0.12129 0.15366,-0.24334 0.23049,-0.36608 0.0769,-0.12276 0.15366,-0.24621 0.23049,-0.3703 0.0769,-0.12409 0.15367,-0.24882 0.23049,-0.37412 0.0769,-0.12532 0.15367,-0.2512 0.23049,-0.3776 0.0769,-0.1264 0.15367,-0.25332 0.23051,-0.38068 0.0769,-0.12737 0.15365,-0.25519 0.23049,-0.3834 0.0769,-0.12821 0.15366,-0.25681 0.23049,-0.38572 0.0769,-0.12893 0.15365,-0.25817 0.23048,-0.38767 0.0769,-0.12951 0.15366,-0.25927 0.23049,-0.38923 0.0769,-0.12996 0.15366,-0.26012 0.2305,-0.3904 0.0769,-0.13028 0.15366,-0.26069 0.23049,-0.39117 0.0769,-0.13048 0.15366,-0.26102 0.23049,-0.39157"
         title="sin(x)"
         id="path4151" />
      <circle
         style="opacity:1;fill:none;fill-opacity:1;stroke:#000000;stroke-width:3.5999999;stroke-linecap:square;stroke-miterlimit:4;stroke-dasharray:none;stroke-dashoffset:0;stroke-opacity:1"
         id="path4138"
         cx="144.89847"
         cy="417.35712"
         r="30" />
    </g>
    <path
       style="fill:none;fill-rule:evenodd;stroke:#000000;stroke-width:3;stroke-linecap:butt;stroke-linejoin:miter;stroke-miterlimit:4;stroke-dasharray:none;stroke-opacity:1"
       d="M 189.44543,502.3622 260,502.36218"
       id="path4173"
       inkscape:connector-curvature="0"
       sodipodi:nodetypes="cc" />
    <rect
       style="opacity:1;fill:none;fill-opacity:1;stroke:#000000;stroke-width:3;stroke-linecap:square;stroke-miterlimit:4;stroke-dasharray:none;stroke-dashoffset:0;stroke-opacity:1"
       id="rect4175"
       width="60"
       height="20"
       x="260"
       y="492.36218" />
    <path
       style="fill:none;fill-rule:evenodd;stroke:#000000;stroke-width:2.70000005;stroke-linecap:butt;stroke-linejoin:miter;stroke-miterlimit:4;stroke-dasharray:none;stroke-opacity:1;marker-end:url(#Arrow2Mend)"
       d="m 267.14286,535.21933 50,-70"
       id="path4177"
       inkscape:connector-curvature="0" />
    <text
       xml:space="preserve"
       style="font-style:normal;font-weight:normal;font-size:20px;line-height:128.99999619%;font-family:Sans;letter-spacing:0px;word-spacing:0px;fill:#000000;fill-opacity:1;stroke:none;stroke-width:1px;stroke-linecap:butt;stroke-linejoin:miter;stroke-opacity:1"
       x="137.33398"
       y="459.63272"
       id="text4456"
       sodipodi:linespacing="129%"
       inkscape:transform-center-y="20.000022"
       inkscape:transform-center-x="-2.8571428"><tspan
         sodipodi:role="line"
         id="tspan4458"
         x="137.33398"
         y="459.63272">DDS</tspan></text>
    <text
       xml:space="preserve"
       style="font-style:normal;font-weight:normal;font-size:20px;line-height:128.99999619%;font-family:Sans;letter-spacing:0px;word-spacing:0px;fill:#000000;fill-opacity:1;stroke:none;stroke-width:1px;stroke-linecap:butt;stroke-linejoin:miter;stroke-opacity:1"
       x="236.63086"
       y="449.63272"
       id="text4460"
       sodipodi:linespacing="129%"><tspan
         sodipodi:role="line"
         id="tspan4462"
         x="236.63086"
         y="449.63272">attenuator</tspan></text>
    <text
       xml:space="preserve"
       style="font-style:normal;font-weight:normal;font-size:20px;line-height:128.99999619%;font-family:Sans;letter-spacing:0px;word-spacing:0px;fill:#000000;fill-opacity:1;stroke:none;stroke-width:1px;stroke-linecap:butt;stroke-linejoin:miter;stroke-opacity:1"
       x="70.009766"
       y="464.95047"
       id="text4456-5"
       sodipodi:linespacing="129%"
       inkscape:transform-center-y="20.000022"
       inkscape:transform-center-x="-2.8571428"><tspan
         sodipodi:role="line"
         id="tspan4458-1"
         x="70.009766"
         y="464.95047"
         style="line-height:128.99999619%;text-align:center;text-anchor:middle">ASF</tspan><tspan
         sodipodi:role="line"
         x="70.009766"
         y="490.75046"
         id="tspan4785"
         style="line-height:128.99999619%;text-align:center;text-anchor:middle">[0, 1]</tspan></text>
    <rect
       style="opacity:1;fill:none;fill-opacity:1;stroke:#000000;stroke-width:2.29999995;stroke-linecap:square;stroke-miterlimit:4;stroke-dasharray:4.5999999, 9.19999981;stroke-dashoffset:0;stroke-opacity:1"
       id="rect4236"
       width="415"
       height="130"
       x="20"
       y="422.36218" />
    <text
       xml:space="preserve"
       style="font-style:normal;font-weight:normal;font-size:30px;line-height:128.99999619%;font-family:Sans;letter-spacing:0px;word-spacing:0px;fill:#000000;fill-opacity:1;stroke:none;stroke-width:1px;stroke-linecap:butt;stroke-linejoin:miter;stroke-opacity:1"
       x="140.68604"
       y="413.53162"
       id="text4460-1"
       sodipodi:linespacing="129%"><tspan
         sodipodi:role="line"
         id="tspan4462-9"
         x="140.68604"
         y="413.53162">Urukul</tspan></text>
    <rect
       style="opacity:1;fill:none;fill-opacity:1;stroke:#000000;stroke-width:2.29999995;stroke-linecap:square;stroke-miterlimit:4;stroke-dasharray:4.5999999, 9.19999981;stroke-dashoffset:0;stroke-opacity:1"
       id="rect4236-9"
       width="325"
       height="190"
       x="65"
       y="682.36218" />
    <text
       xml:space="preserve"
       style="font-style:normal;font-weight:normal;font-size:30px;line-height:128.99999619%;font-family:Sans;letter-spacing:0px;word-spacing:0px;fill:#000000;fill-opacity:1;stroke:none;stroke-width:1px;stroke-linecap:butt;stroke-linejoin:miter;stroke-opacity:1"
       x="157.41943"
       y="670.1698"
       id="text4460-1-1"
       sodipodi:linespacing="129%"><tspan
         sodipodi:role="line"
         id="tspan4462-9-5"
         x="157.41943"
         y="670.1698">Novo</tspan></text>
    <path
       style="fill:none;fill-rule:evenodd;stroke:#000000;stroke-width:3;stroke-linecap:butt;stroke-linejoin:miter;stroke-miterlimit:4;stroke-dasharray:none;stroke-opacity:1"
       d="m 320,502.36218 30,0 30,-10"
       id="path4327"
       inkscape:connector-curvature="0"
       sodipodi:nodetypes="ccc" />
    <path
       style="fill:none;fill-rule:evenodd;stroke:#000000;stroke-width:3;stroke-linecap:butt;stroke-linejoin:miter;stroke-miterlimit:4;stroke-dasharray:none;stroke-opacity:1"
       d="m 375,487.36218 35,0 10,15 80,0"
       id="path4329"
       inkscape:connector-curvature="0"
       sodipodi:nodetypes="cccc" />
    <path
       style="fill:none;fill-rule:evenodd;stroke:#000000;stroke-width:2;stroke-linecap:butt;stroke-linejoin:miter;stroke-miterlimit:4;stroke-dasharray:2, 2;stroke-dashoffset:0;stroke-opacity:1"
       d="m 370,522.36218 0,-25"
       id="path4333"
       inkscape:connector-curvature="0"
       sodipodi:nodetypes="cc" />
    <rect
       style="opacity:1;fill:none;fill-opacity:1;stroke:#000000;stroke-width:2.29999995;stroke-linecap:square;stroke-miterlimit:4;stroke-dasharray:4.5999999, 9.19999981;stroke-dashoffset:0;stroke-opacity:1"
       id="rect4236-8"
       width="210"
       height="340"
       x="-250"
       y="532.36218" />
    <text
       xml:space="preserve"
       style="font-style:normal;font-weight:normal;font-size:30px;line-height:128.99999619%;font-family:Sans;letter-spacing:0px;word-spacing:0px;fill:#000000;fill-opacity:1;stroke:none;stroke-width:1px;stroke-linecap:butt;stroke-linejoin:miter;stroke-opacity:1"
       x="-229.31396"
       y="513.53162"
       id="text4460-1-11"
       sodipodi:linespacing="129%"><tspan
         sodipodi:role="line"
         id="tspan4462-9-3"
         x="-229.31396"
         y="513.53162">Kasli</tspan></text>
    <path
       style="fill:none;fill-rule:evenodd;stroke:#000000;stroke-width:3;stroke-linecap:butt;stroke-linejoin:miter;stroke-miterlimit:4;stroke-dasharray:none;stroke-opacity:1"
       d="m 610,552.36218 0,-50 -110,0"
       id="path4376"
       inkscape:connector-curvature="0" />
    <text
       xml:space="preserve"
       style="font-style:normal;font-weight:normal;font-size:20px;line-height:128.99999619%;font-family:Sans;letter-spacing:0px;word-spacing:0px;fill:#000000;fill-opacity:1;stroke:none;stroke-width:1px;stroke-linecap:butt;stroke-linejoin:miter;stroke-opacity:1"
       x="358.72559"
       y="469.828"
       id="text4460-0"
       sodipodi:linespacing="129%"><tspan
         sodipodi:role="line"
         id="tspan4462-8"
         x="358.72559"
         y="469.828">switch</tspan></text>
    <text
       xml:space="preserve"
       style="font-style:normal;font-weight:normal;font-size:20px;line-height:128.99999619%;font-family:Sans;letter-spacing:0px;word-spacing:0px;fill:#000000;fill-opacity:1;stroke:none;stroke-width:1px;stroke-linecap:butt;stroke-linejoin:miter;stroke-opacity:1"
       x="333.68652"
       y="538.29968"
       id="text4460-8"
       sodipodi:linespacing="129%"><tspan
         sodipodi:role="line"
         id="tspan4462-0"
         x="333.68652"
         y="538.29968">RF_SW</tspan></text>
    <path
       style="fill:none;fill-rule:evenodd;stroke:#000000;stroke-width:3;stroke-linecap:butt;stroke-linejoin:miter;stroke-miterlimit:4;stroke-dasharray:none;stroke-opacity:1"
       d="m 610,722.36218 0,30 -210,0"
       id="path4376-0"
       inkscape:connector-curvature="0"
       sodipodi:nodetypes="ccc" />
  </g>
</svg>
